<svg width="109" height="32" viewBox="0 0 109 32" fill="none" xmlns="http://www.w3.org/2000/svg">
<path d="M30.0411 17.0941H25.0261C20.6454 17.0941 17.0942 20.6453 17.0942 25.0259V30.041C24.0082 29.5283 29.5284 24.0081 30.0411 17.0941Z" fill="#93C5FD"/>
<path d="M14.9889 30.041V25.0259C14.9889 20.6453 11.4377 17.0941 7.05701 17.0941H2.04199C2.55464 24.0081 8.07488 29.5283 14.9889 30.041Z" fill="#3B82F6"/>
<path d="M30.0411 14.9879C29.5284 8.0739 24.0082 2.55366 17.0942 2.04102V7.05603C17.0942 11.4367 20.6454 14.9879 25.0261 14.9879H30.0411Z" fill="#3B82F6"/>
<path d="M14.9889 2.04102C8.07488 2.55366 2.55464 8.0739 2.04199 14.9879H7.05701C11.4377 14.9879 14.9889 11.4367 14.9889 7.05603V2.04102Z" fill="#93C5FD"/>
<path d="M47.3438 13.1182C47.4349 12.9541 47.5283 12.8379 47.624 12.7695C47.7197 12.7012 47.8405 12.667 47.9863 12.667C48.2096 12.667 48.3669 12.7262 48.458 12.8447C48.5537 12.9632 48.6016 13.166 48.6016 13.4531L48.6152 15.2305C48.6152 15.5449 48.5628 15.7568 48.458 15.8662C48.3577 15.9756 48.1732 16.0303 47.9043 16.0303C47.7129 16.0303 47.5648 15.9847 47.46 15.8936C47.3597 15.8024 47.2731 15.6338 47.2002 15.3877C47.0817 14.9548 46.8926 14.6449 46.6328 14.458C46.373 14.2666 46.013 14.1709 45.5527 14.1709C44.8509 14.1709 44.3132 14.4079 43.9395 14.8818C43.5658 15.3558 43.3789 16.0417 43.3789 16.9395C43.3789 17.8327 43.568 18.5186 43.9463 18.9971C44.3245 19.4756 44.8646 19.7148 45.5664 19.7148C46.0449 19.7148 46.5713 19.5553 47.1455 19.2363C47.7243 18.9173 48.0889 18.7578 48.2393 18.7578C48.417 18.7578 48.5651 18.833 48.6836 18.9834C48.8066 19.1338 48.8682 19.3206 48.8682 19.5439C48.8682 19.945 48.515 20.3232 47.8086 20.6787C47.1022 21.0342 46.307 21.2119 45.4229 21.2119C44.2288 21.2119 43.2627 20.8177 42.5244 20.0293C41.7861 19.2409 41.417 18.2109 41.417 16.9395C41.417 15.7135 41.7907 14.695 42.5381 13.8838C43.2855 13.0726 44.2334 12.667 45.3818 12.667C45.7054 12.667 46.0244 12.7035 46.3389 12.7764C46.6533 12.8493 46.9883 12.9632 47.3438 13.1182ZM53.2979 17.2881V19.5029H54.9111C55.221 19.5029 55.4398 19.5599 55.5674 19.6738C55.6995 19.7878 55.7656 19.9769 55.7656 20.2412C55.7656 20.5101 55.6995 20.7038 55.5674 20.8223C55.4398 20.9408 55.221 21 54.9111 21H51.0898C50.7754 21 50.5521 20.9408 50.4199 20.8223C50.2878 20.7038 50.2217 20.5101 50.2217 20.2412C50.2217 19.9769 50.2855 19.7878 50.4131 19.6738C50.5452 19.5599 50.7708 19.5029 51.0898 19.5029H51.6094V16.1807H51.3154C51.0055 16.1807 50.7845 16.1237 50.6523 16.0098C50.5247 15.8913 50.4609 15.6976 50.4609 15.4287C50.4609 15.1598 50.5225 14.9684 50.6455 14.8545C50.7731 14.7406 50.9964 14.6836 51.3154 14.6836H52.7715C52.8945 14.6836 52.9902 14.7109 53.0586 14.7656C53.127 14.8158 53.1611 14.8864 53.1611 14.9775V15.9893C53.6579 15.4561 54.1204 15.0755 54.5488 14.8477C54.9818 14.6198 55.4466 14.5059 55.9434 14.5059C56.3945 14.5059 56.7523 14.6084 57.0166 14.8135C57.2809 15.014 57.4131 15.2852 57.4131 15.627C57.4131 15.8913 57.3219 16.11 57.1396 16.2832C56.9574 16.4518 56.7227 16.5361 56.4355 16.5361C56.2305 16.5361 55.9867 16.4609 55.7041 16.3105C55.4261 16.1602 55.2324 16.085 55.123 16.085C54.9043 16.085 54.6468 16.1829 54.3506 16.3789C54.0544 16.5749 53.7035 16.8779 53.2979 17.2881ZM60.8105 16.1807L62.041 19.0928L63.333 16.1807H63.2236C62.9775 16.1807 62.7884 16.1169 62.6562 15.9893C62.5286 15.8617 62.4648 15.6748 62.4648 15.4287C62.4648 15.1598 62.5286 14.9684 62.6562 14.8545C62.7884 14.7406 63.014 14.6836 63.333 14.6836H64.9395C65.2585 14.6836 65.4818 14.7428 65.6094 14.8613C65.7415 14.9753 65.8076 15.1644 65.8076 15.4287C65.8076 15.6748 65.7438 15.8617 65.6162 15.9893C65.4886 16.1169 65.3018 16.1807 65.0557 16.1807H64.9395L62.1299 22.2168H62.4375C62.7474 22.2168 62.9684 22.276 63.1006 22.3945C63.2373 22.513 63.3057 22.7067 63.3057 22.9756C63.3057 23.2399 63.2373 23.4313 63.1006 23.5498C62.9684 23.6683 62.7474 23.7275 62.4375 23.7275H59.4434C59.1289 23.7275 58.9056 23.6683 58.7734 23.5498C58.6413 23.4359 58.5752 23.2445 58.5752 22.9756C58.5752 22.7067 58.6413 22.513 58.7734 22.3945C58.9056 22.276 59.1289 22.2168 59.4434 22.2168H60.5029L61.1455 20.8428L59.0742 16.1807H58.9648C58.7188 16.1807 58.5296 16.1169 58.3975 15.9893C58.2699 15.8617 58.2061 15.6748 58.2061 15.4287C58.2061 15.1598 58.2721 14.9684 58.4043 14.8545C58.5365 14.7406 58.7598 14.6836 59.0742 14.6836H60.8105C61.125 14.6836 61.3483 14.7428 61.4805 14.8613C61.6126 14.9753 61.6787 15.1644 61.6787 15.4287C61.6787 15.6748 61.6126 15.8617 61.4805 15.9893C61.3529 16.1169 61.1683 16.1807 60.9268 16.1807H60.8105ZM69.123 20.3574V22.2168H69.9912C70.3011 22.2168 70.5221 22.276 70.6543 22.3945C70.791 22.513 70.8594 22.7067 70.8594 22.9756C70.8594 23.2399 70.7933 23.429 70.6611 23.543C70.529 23.6569 70.3057 23.7139 69.9912 23.7139H67.0928C66.7783 23.7139 66.5573 23.6569 66.4297 23.543C66.3021 23.4336 66.2383 23.2445 66.2383 22.9756C66.2383 22.7067 66.3021 22.513 66.4297 22.3945C66.5618 22.276 66.7829 22.2168 67.0928 22.2168H67.4961V16.1807H67.3867C67.1452 16.1807 66.9606 16.1169 66.833 15.9893C66.7054 15.8617 66.6416 15.6748 66.6416 15.4287C66.6416 15.1598 66.7054 14.9684 66.833 14.8545C66.9606 14.7406 67.1816 14.6836 67.4961 14.6836H68.5488C68.681 14.6836 68.779 14.7087 68.8428 14.7588C68.9066 14.8044 68.9385 14.8727 68.9385 14.9639V15.4561C69.1709 15.1462 69.4512 14.9137 69.7793 14.7588C70.112 14.5993 70.4857 14.5195 70.9004 14.5195C71.8346 14.5195 72.6094 14.818 73.2246 15.415C73.8398 16.012 74.1475 16.764 74.1475 17.6709C74.1475 18.6188 73.849 19.4049 73.252 20.0293C72.6549 20.6491 71.903 20.959 70.9961 20.959C70.627 20.959 70.2806 20.9089 69.957 20.8086C69.638 20.7038 69.36 20.5534 69.123 20.3574ZM70.7021 15.9756C70.251 15.9756 69.8796 16.1419 69.5879 16.4746C69.2962 16.8073 69.1504 17.2334 69.1504 17.7529C69.1504 18.2725 69.2962 18.6986 69.5879 19.0312C69.8796 19.3639 70.251 19.5303 70.7021 19.5303C71.1533 19.5303 71.5247 19.3639 71.8164 19.0312C72.1126 18.694 72.2607 18.2679 72.2607 17.7529C72.2607 17.2334 72.1149 16.8073 71.8232 16.4746C71.5316 16.1419 71.1579 15.9756 70.7021 15.9756ZM78.3584 15.0664H80.4434C80.7578 15.0664 80.9811 15.1234 81.1133 15.2373C81.2454 15.3512 81.3115 15.5404 81.3115 15.8047C81.3115 16.0736 81.2432 16.2673 81.1064 16.3857C80.9743 16.5042 80.7533 16.5635 80.4434 16.5635H78.3584V18.3135C78.3584 18.8057 78.4336 19.1429 78.584 19.3252C78.7344 19.5075 78.9987 19.5986 79.377 19.5986C79.7324 19.5986 80.1517 19.4961 80.6348 19.291C81.1178 19.0859 81.4414 18.9834 81.6055 18.9834C81.7923 18.9834 81.9518 19.0586 82.084 19.209C82.2207 19.3548 82.2891 19.5326 82.2891 19.7422C82.2891 20.0931 81.9701 20.4144 81.332 20.7061C80.6986 20.9932 79.9785 21.1367 79.1719 21.1367C78.7025 21.1367 78.29 21.0729 77.9346 20.9453C77.5791 20.8177 77.2988 20.6354 77.0938 20.3984C76.9434 20.2161 76.8363 19.9974 76.7725 19.7422C76.7087 19.487 76.6768 19.0609 76.6768 18.4639V18.3135V16.5635H76.0342C75.7243 16.5635 75.5033 16.5042 75.3711 16.3857C75.2435 16.2673 75.1797 16.0736 75.1797 15.8047C75.1797 15.5358 75.2435 15.3467 75.3711 15.2373C75.4987 15.1234 75.7197 15.0664 76.0342 15.0664H76.6768V13.4668C76.6768 13.1523 76.7406 12.9313 76.8682 12.8037C77.0003 12.6761 77.2168 12.6123 77.5176 12.6123C77.8184 12.6123 78.0326 12.6761 78.1602 12.8037C78.2923 12.9313 78.3584 13.1523 78.3584 13.4668V15.0664ZM87.2383 15.9756C86.7051 15.9756 86.2653 16.151 85.9189 16.502C85.5771 16.8483 85.4062 17.2926 85.4062 17.835C85.4062 18.3818 85.5771 18.8353 85.9189 19.1953C86.2653 19.5508 86.7051 19.7285 87.2383 19.7285C87.7715 19.7285 88.2113 19.5508 88.5576 19.1953C88.904 18.8353 89.0771 18.3818 89.0771 17.835C89.0771 17.2926 88.904 16.8483 88.5576 16.502C88.2158 16.151 87.776 15.9756 87.2383 15.9756ZM87.2383 14.5332C88.3457 14.5332 89.2435 14.8431 89.9316 15.4629C90.6198 16.0827 90.9639 16.8779 90.9639 17.8486C90.9639 18.8239 90.6198 19.6214 89.9316 20.2412C89.2435 20.861 88.3457 21.1709 87.2383 21.1709C86.1354 21.1709 85.2399 20.861 84.5518 20.2412C83.8636 19.6214 83.5195 18.8239 83.5195 17.8486C83.5195 16.8779 83.8636 16.0827 84.5518 15.4629C85.2445 14.8431 86.14 14.5332 87.2383 14.5332ZM95.3389 17.2881V19.5029H96.9521C97.262 19.5029 97.4808 19.5599 97.6084 19.6738C97.7406 19.7878 97.8066 19.9769 97.8066 20.2412C97.8066 20.5101 97.7406 20.7038 97.6084 20.8223C97.4808 20.9408 97.262 21 96.9521 21H93.1309C92.8164 21 92.5931 20.9408 92.4609 20.8223C92.3288 20.7038 92.2627 20.5101 92.2627 20.2412C92.2627 19.9769 92.3265 19.7878 92.4541 19.6738C92.5863 19.5599 92.8118 19.5029 93.1309 19.5029H93.6504V16.1807H93.3564C93.0465 16.1807 92.8255 16.1237 92.6934 16.0098C92.5658 15.8913 92.502 15.6976 92.502 15.4287C92.502 15.1598 92.5635 14.9684 92.6865 14.8545C92.8141 14.7406 93.0374 14.6836 93.3564 14.6836H94.8125C94.9355 14.6836 95.0312 14.7109 95.0996 14.7656C95.168 14.8158 95.2021 14.8864 95.2021 14.9775V15.9893C95.6989 15.4561 96.1615 15.0755 96.5898 14.8477C97.0228 14.6198 97.4876 14.5059 97.9844 14.5059C98.4355 14.5059 98.7933 14.6084 99.0576 14.8135C99.3219 15.014 99.4541 15.2852 99.4541 15.627C99.4541 15.8913 99.363 16.11 99.1807 16.2832C98.9984 16.4518 98.7637 16.5361 98.4766 16.5361C98.2715 16.5361 98.0277 16.4609 97.7451 16.3105C97.4671 16.1602 97.2734 16.085 97.1641 16.085C96.9453 16.085 96.6878 16.1829 96.3916 16.3789C96.0954 16.5749 95.7445 16.8779 95.3389 17.2881ZM106.844 19.5029H106.953C107.199 19.5029 107.386 19.569 107.514 19.7012C107.646 19.8288 107.712 20.0133 107.712 20.2549C107.712 20.5192 107.644 20.7106 107.507 20.8291C107.375 20.943 107.154 21 106.844 21H106.201C105.973 21 105.802 20.9567 105.688 20.8701C105.579 20.7835 105.488 20.6263 105.415 20.3984C105.037 20.6491 104.636 20.8405 104.212 20.9727C103.788 21.1048 103.36 21.1709 102.927 21.1709C102.193 21.1709 101.617 20.9886 101.197 20.624C100.778 20.2594 100.568 19.7604 100.568 19.127C100.568 18.4434 100.84 17.9124 101.382 17.5342C101.924 17.1559 102.685 16.9668 103.665 16.9668C103.884 16.9668 104.116 16.9782 104.362 17.001C104.608 17.0238 104.884 17.0602 105.189 17.1104V16.9805C105.189 16.5703 105.089 16.2581 104.889 16.0439C104.693 15.8298 104.401 15.7227 104.014 15.7227C103.713 15.7227 103.328 15.8343 102.858 16.0576C102.394 16.2809 102.052 16.3926 101.833 16.3926C101.619 16.3926 101.446 16.3311 101.313 16.208C101.181 16.0804 101.115 15.9141 101.115 15.709C101.115 15.3398 101.384 15.0482 101.922 14.834C102.464 14.6152 103.2 14.5059 104.13 14.5059C105.101 14.5059 105.796 14.6927 106.215 15.0664C106.634 15.4401 106.844 16.0736 106.844 16.9668V19.5029ZM105.189 18.1836C104.962 18.1335 104.752 18.097 104.561 18.0742C104.369 18.0469 104.191 18.0332 104.027 18.0332C103.526 18.0332 103.132 18.1175 102.845 18.2861C102.562 18.4548 102.421 18.6872 102.421 18.9834C102.421 19.2477 102.512 19.4505 102.694 19.5918C102.877 19.7285 103.139 19.7969 103.48 19.7969C103.795 19.7969 104.091 19.7513 104.369 19.6602C104.647 19.569 104.921 19.4277 105.189 19.2363V18.1836Z" fill="white"/>
</svg>
